<?xml version="1.0" encoding="utf-8"?>
<!-- Generator: Adobe Illustrator 27.5.0, SVG Export Plug-In . SVG Version: 6.00 Build 0)  -->
<svg version="1.1" xmlns="http://www.w3.org/2000/svg" xmlns:xlink="http://www.w3.org/1999/xlink" x="0px" y="0px"
	 viewBox="0 0 3710 3710" style="enable-background:new 0 0 3710 3710;" xml:space="preserve">

<g id="Illustration">
	<g>
		<linearGradient id="SVGID_1_" gradientUnits="userSpaceOnUse" x1="3589.9165" y1="4012.3257" x2="1145.9063" y2="977.0185">
			<stop  offset="0" style="stop-color:#DAE3FE"/>
			<stop  offset="1" style="stop-color:#E9EFFD"/>
		</linearGradient>
		<path style="fill:url(#SVGID_1_);" d="M2917.554,2815.31c-56.138,59.1-109.255,97.212-151.222,127.324
			c-493.312,353.957-1077.031,250.781-1201.089,225.583c-183.193-37.208-537.301-109.129-793.315-410.196
			c-387.327-455.489-327.015-1173.1-26.578-1646.804c54.955-86.649,345.242-567.569,935.248-644.693
			c357.065-46.675,773.289,47.463,1074.707,299.991C3388.008,1296.595,3342.967,2367.449,2917.554,2815.31z"/>
		<g>
			<g>
				<path style="fill:#BDD0FB;" d="M645.833,876.591c2.857-18.648,28.871-21.075,35.051-3.251
					c59.75,172.318,230.576,619.259,465.74,847.715c382.901,371.979,660.466,996.765,450.371,1341.708
					C1596.995,3062.763,334.501,2908.325,645.833,876.591z"/>
				<path style="opacity:0.43;fill:#FFFFFF;" d="M702.621,1124.268c0.794,4.075,2.084,9.29,3.206,14.073l3.665,14.61l7.662,29.172
					l15.879,58.226c10.887,38.739,22.256,77.344,33.976,115.838c23.287,77.03,47.851,153.667,73.993,229.752
					c52.64,152.023,109.071,302.767,173.607,450.039c32.587,73.467,65.399,146.854,101.288,218.75
					c35.879,71.88,73.44,142.93,113.703,212.423c80.012,139.234,170.514,272.638,275.271,394.745
					c1.434,1.64,1.266,4.132-0.373,5.565c-1.592,1.391-4.018,1.241-5.468-0.267c-55.37-58.849-106.252-121.83-154.395-186.782
					c-47.613-65.373-91.369-133.431-133.299-202.547c-82.251-139.218-154.596-284.102-218.595-432.412
					c-32.134-74.113-61.812-149.239-90.407-224.735c-28.548-75.52-55.463-151.651-80.125-228.508
					c-24.79-76.806-48.469-153.967-69.96-231.746c-10.657-38.914-20.956-77.923-30.77-117.057
					c-4.835-19.585-9.679-39.167-14.203-58.834l-6.576-29.558l-3.128-14.833c-0.953-5.073-2.036-9.655-2.826-15.531
					c-0.287-2.138,1.213-4.104,3.35-4.391c2.058-0.276,3.956,1.102,4.352,3.112L702.621,1124.268z"/>
			</g>
			<g>
				<path style="fill:#91B3FA;" d="M981.82,505.329c207.442,124.892,1384.953,900.992,855.151,2136.767
					c0,0-906.726-311.38-886.222-2119.509C950.927,506.77,968.268,497.17,981.82,505.329z"/>
				<path style="opacity:0.43;fill:#FFFFFF;" d="M1073.563,730.686c25.719,31.689,50.457,64.037,74.918,96.634
					c24.406,32.628,48.374,65.58,71.914,98.837c47.102,66.495,92.599,134.132,136.39,202.863
					c87.516,137.48,168.605,279.202,240.111,425.783c71.301,146.585,133.373,298.132,178.424,455.141
					c11.384,39.201,21.274,78.839,30.14,118.702c2.115,9.989,4.479,19.926,6.39,29.958l5.862,30.073
					c3.49,20.127,7.146,40.232,9.909,60.484c12.007,80.841,17.045,162.842,13.896,244.684c-0.132,3.435-3.024,6.113-6.459,5.981
					c-3.435-0.132-6.113-3.024-5.981-6.46l0-0.022l0.002-0.055c3.408-80.918-1.267-162.196-12.894-242.484
					c-2.667-20.11-6.227-40.09-9.618-60.092l-5.714-29.898c-1.862-9.975-4.176-19.861-6.242-29.797
					c-8.667-39.655-18.356-79.112-29.542-118.161c-44.252-156.399-105.557-307.704-176.147-454.187
					c-70.793-146.484-151.218-288.261-238.104-425.863c-43.475-68.793-88.665-136.509-135.465-203.093
					c-23.388-33.301-47.205-66.3-71.459-98.974c-24.295-32.627-48.922-65.072-74.408-96.711l-0.023-0.028
					c-0.914-1.134-0.735-2.794,0.4-3.707C1070.996,729.38,1072.65,729.552,1073.563,730.686z"/>
			</g>
		</g>
		<g>
			<g>
				
					<linearGradient id="SVGID_00000096776253083824070960000014822112591437621408_" gradientUnits="userSpaceOnUse" x1="3444.1733" y1="1232.4225" x2="2980.9468" y2="1700.7954">
					<stop  offset="0" style="stop-color:#FF928E"/>
					<stop  offset="1" style="stop-color:#FE7062"/>
				</linearGradient>
				<path style="fill:url(#SVGID_00000096776253083824070960000014822112591437621408_);" d="M3216.118,3182.052H1598.447v-1802.44
					h1581.05c20.225,0,36.621,16.396,36.621,36.621V3182.052z"/>
				
					<linearGradient id="SVGID_00000057830528565651159880000018074879664916160683_" gradientUnits="userSpaceOnUse" x1="3063.3689" y1="3006.4448" x2="1615.9066" y2="1822.6257">
					<stop  offset="0" style="stop-color:#FF928E"/>
					<stop  offset="1" style="stop-color:#FE7062"/>
				</linearGradient>
				<path style="fill:url(#SVGID_00000057830528565651159880000018074879664916160683_);" d="M2954.234,3182.052H1399.341V1426.988
					c0-25.597,20.75-46.347,46.347-46.347h1508.546V3182.052z"/>
				<path style="opacity:0.37;fill:#FFFFFF;" d="M2127.966,1897.304l179.623,18.046c25.134,2.528,46.581-16.777,44.729-40.258
					l-39.268-497.61c-75.298-2.224-149.569-3.845-221.235-4.984v487.309C2091.815,1879.071,2107.401,1895.237,2127.966,1897.304z"/>
				<path style="fill:#FFFFFF;" d="M2201.587,1809.971c0.553,9.044,8.516,16.017,18.021,16.017c0.354,0,0.707-0.012,1.06-0.033
					c9.963-0.542,17.574-8.578,16.986-17.953l-27.084-438.811c-12.145-0.282-24.191-0.537-36.236-0.789L2201.587,1809.971z"/>
				<g>
					<path style="opacity:0.87;fill:#FFFFFF;" d="M2988.609,2311.341c-0.699,33.409,0.355,86.419,1.218,120.667
						c0.449,17.817,17.073,31.396,35.886,29.322l135.402-14.933c18.038-1.99,30.746-17.633,28.054-34.533l-16.62-104.328
						c-2.36-14.811-15.881-25.769-31.797-25.769h-119.997C3003.271,2281.767,2988.954,2294.891,2988.609,2311.341z"/>
					<g>
						
							<linearGradient id="SVGID_00000127032544603716414670000014624715737547579801_" gradientUnits="userSpaceOnUse" x1="3335.4214" y1="1873.413" x2="3173.1841" y2="2150.5693">
							<stop  offset="0" style="stop-color:#09005D"/>
							<stop  offset="1" style="stop-color:#1A0F91"/>
						</linearGradient>
						<path style="fill:url(#SVGID_00000127032544603716414670000014624715737547579801_);" d="M3051.228,2410.934
							c-1.982,0-3.654-1.448-3.78-3.341l-5.858-86.91c-0.133-1.963,1.45-3.655,3.543-3.78c2.197-0.16,3.883,1.371,4.017,3.334
							l5.858,86.911c0.133,1.962-1.45,3.653-3.543,3.779C3051.383,2410.934,3051.302,2410.934,3051.228,2410.934z"/>
						
							<linearGradient id="SVGID_00000139270129692331116810000016679562811259741578_" gradientUnits="userSpaceOnUse" x1="3345.0769" y1="1879.0653" x2="3182.8396" y2="2156.2217">
							<stop  offset="0" style="stop-color:#09005D"/>
							<stop  offset="1" style="stop-color:#1A0F91"/>
						</linearGradient>
						<path style="fill:url(#SVGID_00000139270129692331116810000016679562811259741578_);" d="M3063.284,2410.934
							c-2.034,0-3.72-1.517-3.787-3.445l-3.069-88.573c-0.066-1.97,1.575-3.619,3.661-3.683c2.412-0.111,3.839,1.483,3.913,3.445
							l3.07,88.574c0.067,1.97-1.576,3.619-3.662,3.682C3063.41,2410.934,3063.322,2410.934,3063.284,2410.934z"/>
						
							<linearGradient id="SVGID_00000126285294328982279290000005014375172827562115_" gradientUnits="userSpaceOnUse" x1="3356.6177" y1="1885.821" x2="3194.3801" y2="2162.9773">
							<stop  offset="0" style="stop-color:#09005D"/>
							<stop  offset="1" style="stop-color:#1A0F91"/>
						</linearGradient>
						<path style="fill:url(#SVGID_00000126285294328982279290000005014375172827562115_);" d="M3079.454,2410.934
							c-2.012,0-3.684-1.482-3.78-3.397c-0.739-14.56-4.423-87.273-4.423-88.741c0-1.97,1.694-3.564,3.787-3.564
							c2.078,0,3.772,1.58,3.787,3.529c0.044,1.935,2.907,58.687,4.408,88.442c0.103,1.962-1.509,3.632-3.602,3.723
							C3079.573,2410.934,3079.513,2410.934,3079.454,2410.934z M3078.825,2318.797h0.074H3078.825z"/>
						
							<linearGradient id="SVGID_00000121249164265081447250000013978952852099378072_" gradientUnits="userSpaceOnUse" x1="3376.4897" y1="1897.4535" x2="3214.2524" y2="2174.6094">
							<stop  offset="0" style="stop-color:#09005D"/>
							<stop  offset="1" style="stop-color:#1A0F91"/>
						</linearGradient>
						<path style="fill:url(#SVGID_00000121249164265081447250000013978952852099378072_);" d="M3104.699,2414.498
							c-4.062,0-7.42-3.028-7.56-6.876c-3.203-85.818-2.641-87.753-2.271-89.034c1.095-3.807,5.296-6.041,9.298-5.004
							c3.706,0.953,6.021,4.336,5.518,7.823c-0.244,5.157,1.45,55.089,2.589,85.714c0.148,3.932-3.122,7.239-7.3,7.371
							C3104.883,2414.498,3104.788,2414.498,3104.699,2414.498z"/>
						
							<linearGradient id="SVGID_00000172423224133889294800000010108553366829669017_" gradientUnits="userSpaceOnUse" x1="3389.6523" y1="1905.1583" x2="3227.4148" y2="2182.3147">
							<stop  offset="0" style="stop-color:#09005D"/>
							<stop  offset="1" style="stop-color:#1A0F91"/>
						</linearGradient>
						<path style="fill:url(#SVGID_00000172423224133889294800000010108553366829669017_);" d="M3121.113,2410.934
							c-2.094,0-3.787-1.594-3.787-3.564v-86.91c0-1.97,1.693-3.564,3.787-3.564c2.093,0,3.786,1.594,3.786,3.564v86.91
							C3124.899,2409.341,3123.206,2410.934,3121.113,2410.934z"/>
						
							<linearGradient id="SVGID_00000139977742256690087580000008719469620716816309_" gradientUnits="userSpaceOnUse" x1="3397.8359" y1="1909.9484" x2="3235.5984" y2="2187.1045">
							<stop  offset="0" style="stop-color:#09005D"/>
							<stop  offset="1" style="stop-color:#1A0F91"/>
						</linearGradient>
						<path style="fill:url(#SVGID_00000139977742256690087580000008719469620716816309_);" d="M3134.367,2410.934
							c-2.056,0-3.743-1.545-3.787-3.48c-0.725-30.199-2.419-79.526-3.936-85.455c-0.665-1.121-0.658-2.541,0.14-3.696
							c1.147-1.656,3.492-2.102,5.244-1.023c2.064,1.273,4.024,2.478,6.125,90.008c0.044,1.97-1.612,3.598-3.698,3.647H3134.367z"/>
						
							<linearGradient id="SVGID_00000090289608926737875650000013184012800639556030_" gradientUnits="userSpaceOnUse" x1="3321.498" y1="1865.2628" x2="3159.261" y2="2142.4185">
							<stop  offset="0" style="stop-color:#09005D"/>
							<stop  offset="1" style="stop-color:#1A0F91"/>
						</linearGradient>
						<path style="fill:url(#SVGID_00000090289608926737875650000013184012800639556030_);" d="M3030.85,2418.848
							c-4.002,0-7.345-2.951-7.56-6.758l-5.052-91.261c-0.215-3.932,2.996-7.28,7.175-7.489c3.964-0.264,7.737,2.819,7.959,6.751
							l5.052,91.261c0.215,3.933-2.995,7.28-7.174,7.489C3031.116,2418.848,3030.983,2418.848,3030.85,2418.848z"/>
					</g>
				</g>
			</g>
			<g>
				<g>
					
						<linearGradient id="SVGID_00000120524470494981846910000013130608514047689096_" gradientUnits="userSpaceOnUse" x1="2329.1243" y1="2029.3313" x2="3018.5986" y2="1390.5536">
						<stop  offset="0" style="stop-color:#4F52FF"/>
						<stop  offset="1" style="stop-color:#4042E2"/>
					</linearGradient>
					<path style="fill:url(#SVGID_00000120524470494981846910000013130608514047689096_);" d="M2216.026,1815.098
						c46.14-0.258,89.271,24.347,112.544,64.166l195.563,334.581l-143.676,83.979l-151.211-258.699
						c-2.495-4.269-7.089-6.899-12.052-6.862c-4.943,0.026-9.52,2.701-11.966,6.995l-158.619,278.15l-144.256-82.273
						c0,0,0.331,0.15,0.357,0.104l0.189-0.333l149.802-263.423l51.639-90.921
						C2127.209,1840.484,2169.907,1815.343,2216.026,1815.098z"/>
					<g>
						
							<linearGradient id="SVGID_00000073692466375844487950000005150731104286881419_" gradientUnits="userSpaceOnUse" x1="2540.0178" y1="2256.9622" x2="3229.4929" y2="1618.1837">
							<stop  offset="0" style="stop-color:#4F52FF"/>
							<stop  offset="1" style="stop-color:#4042E2"/>
						</linearGradient>
						<polygon style="fill:url(#SVGID_00000073692466375844487950000005150731104286881419_);" points="2312.256,2312.904 
							2571.75,2161.229 2542.778,2409.478 						"/>
					</g>
					
						<linearGradient id="SVGID_00000088839923010924796350000017420733989674330253_" gradientUnits="userSpaceOnUse" x1="2488.5854" y1="1205.3893" x2="2270.5894" y2="1707.287">
						<stop  offset="0" style="stop-color:#4F52FF"/>
						<stop  offset="1" style="stop-color:#4042E2"/>
					</linearGradient>
					<path style="fill:url(#SVGID_00000088839923010924796350000017420733989674330253_);" d="M2250.003,2074.633l-20.755-35.509
						c-2.495-4.269-7.089-6.899-12.052-6.862c-4.943,0.026-9.52,2.701-11.966,6.995l-158.619,278.15l-144.256-82.273
						c0,0,0.331,0.15,0.357,0.104l0.189-0.333l149.802-263.423C2165.087,1887.344,2250.003,2074.633,2250.003,2074.633z"/>
				</g>
				<g>
					
						<linearGradient id="SVGID_00000000916828311040275670000009834216238811919802_" gradientUnits="userSpaceOnUse" x1="-1229.6527" y1="3732.7896" x2="-1635.2251" y2="2997.6899" gradientTransform="matrix(-0.4949 0.8689 -0.8689 -0.4949 5503.749 5572.79)">
						<stop  offset="0" style="stop-color:#4F52FF"/>
						<stop  offset="1" style="stop-color:#4042E2"/>
					</linearGradient>
					<path style="fill:url(#SVGID_00000000916828311040275670000009834216238811919802_);" d="M2828.952,2856.659
						c-22.611,40.221-65.337,65.522-111.456,66.04l-387.518,4.35l-1.867-166.408l299.63-3.363c4.945-0.055,9.503-2.745,11.927-7.076
						c2.424-4.307,2.365-9.609-0.156-13.859l-163.197-275.488l142.883-84.634c0,0-0.294,0.213-0.267,0.26l0.195,0.328
						l154.764,260.539l53.449,89.869C2850.849,2766.918,2851.563,2816.463,2828.952,2856.659z"/>
					<g>
						
							<linearGradient id="SVGID_00000057837270612166423170000003456817800427757744_" gradientUnits="userSpaceOnUse" x1="-1059.5897" y1="3638.9587" x2="-1465.1633" y2="2903.8572" gradientTransform="matrix(-0.4949 0.8689 -0.8689 -0.4949 5503.749 5572.79)">
							<stop  offset="0" style="stop-color:#4F52FF"/>
							<stop  offset="1" style="stop-color:#4042E2"/>
						</linearGradient>
						<polygon style="fill:url(#SVGID_00000057837270612166423170000003456817800427757744_);" points="2348.76,2693.912 
							2352.132,2994.464 2150.756,2846.428 						"/>
					</g>
					
						<linearGradient id="SVGID_00000065073438353186753100000002953344932730726049_" gradientUnits="userSpaceOnUse" x1="3249.9519" y1="1740.6077" x2="2991.3982" y2="2085.3459">
						<stop  offset="0" style="stop-color:#4F52FF"/>
						<stop  offset="1" style="stop-color:#4042E2"/>
					</linearGradient>
					<path style="fill:url(#SVGID_00000065073438353186753100000002953344932730726049_);" d="M2586.614,2757.738l41.127-0.461
						c4.945-0.055,9.503-2.745,11.927-7.076c2.424-4.307,2.365-9.609-0.156-13.859l-163.197-275.488l142.883-84.634
						c0,0-0.294,0.213-0.267,0.26l0.195,0.328l154.764,260.539C2791.383,2776.641,2586.614,2757.738,2586.614,2757.738z"/>
				</g>
				<g>
					
						<linearGradient id="SVGID_00000072998288904069234690000008101129484257138085_" gradientUnits="userSpaceOnUse" x1="16271.833" y1="-25408.9863" x2="16662.1973" y2="-26291.1094" gradientTransform="matrix(-0.5025 -0.8646 0.8646 -0.5025 -2050.2119 7726.3525)">
						<stop  offset="0" style="stop-color:#4F52FF"/>
						<stop  offset="1" style="stop-color:#4042E2"/>
					</linearGradient>
					<path style="fill:url(#SVGID_00000072998288904069234690000008101129484257138085_);" d="M1596.194,2861.442
						c-23.406-39.763-23.804-89.417-1.072-129.547l191.015-337.198l144.8,82.026l-147.693,260.724
						c-2.437,4.302-2.403,9.595,0.122,13.867c2.505,4.261,7.119,6.874,12.06,6.832l320.188-2.619l1.351,167.559
						c0,0-0.036,1.134-0.09,1.134h-0.383l-303.025,1.348l-104.557,0.29C1662.77,2926.224,1619.579,2901.193,1596.194,2861.442z"/>
					<g>
						
							<linearGradient id="SVGID_00000157995157751858852870000005016897524784758197_" gradientUnits="userSpaceOnUse" x1="16502.8027" y1="-25306.8145" x2="16893.168" y2="-26188.9375" gradientTransform="matrix(-0.5025 -0.8646 0.8646 -0.5025 -2050.2119 7726.3525)">
							<stop  offset="0" style="stop-color:#4F52FF"/>
							<stop  offset="1" style="stop-color:#4042E2"/>
						</linearGradient>
						<polygon style="fill:url(#SVGID_00000157995157751858852870000005016897524784758197_);" points="1978.245,2528.112 
							1716.72,2379.965 1945.914,2280.278 						"/>
					</g>
					
						<linearGradient id="SVGID_00000038384190083442023530000000647286945846224056_" gradientUnits="userSpaceOnUse" x1="2210.9536" y1="2034.3684" x2="1992.9586" y2="2693.4241">
						<stop  offset="0" style="stop-color:#4F52FF"/>
						<stop  offset="1" style="stop-color:#4042E2"/>
					</linearGradient>
					<path style="fill:url(#SVGID_00000038384190083442023530000000647286945846224056_);" d="M1803.516,2701.658l-20.272,35.787
						c-2.437,4.302-2.403,9.595,0.122,13.867c2.505,4.261,7.119,6.874,12.06,6.832l320.188-2.619l1.351,167.559
						c0,0-0.036,1.134-0.09,1.134h-0.383l-303.025,1.348C1684.253,2870.677,1803.516,2701.658,1803.516,2701.658z"/>
				</g>
			</g>
		</g>
		<g>
			<g>
				<path style="fill:#91B3FA;" d="M2272.263,867.162h221.911c16.971,0,30.729-13.758,30.729-30.73V613.926
					c0-16.01-12.293-29.338-28.251-30.629l-236.432-19.136c-18.626-1.507-34.274,13.82-33.154,32.473l14.521,241.642
					C2242.564,854.502,2256.007,867.162,2272.263,867.162z"/>
				<path style="fill:#FFFFFF;" d="M2462.539,823.852c5.959,0,11.768-2.287,16.125-6.393c4.696-4.422,7.388-10.658,7.388-17.107
					V657.696c0-4.023-3.262-7.286-7.285-7.286c-4.023,0-7.286,3.263-7.286,7.286v142.656c0,2.486-0.996,4.795-2.807,6.499
					c-1.807,1.704-4.176,2.547-6.652,2.415l-169.055-10.064c-4.71-0.285-8.402-4.201-8.402-8.918V650.222
					c0-2.554,1.042-4.902,2.935-6.617c1.893-1.718,4.344-2.536,6.88-2.27l140.625,13.927c4.646,0.459,6.627,3.81,7.268,5.226
					c0.637,1.42,1.825,5.126-0.914,8.904l-53.635,74.021c-1.682,2.323-4.293,3.667-7.16,3.692c0,0-0.054,0-0.078,0
					c-2.835,0-5.436-1.298-7.14-3.571l-59.08-78.714c-2.412-3.212-6.979-3.873-10.198-1.455c-3.22,2.415-3.871,6.983-1.455,10.199
					l59.08,78.716c4.532,6.033,11.312,9.562,18.992,9.395c7.545-0.064,14.411-3.604,18.836-9.712l53.634-74.021
					c5.001-6.898,5.902-15.656,2.408-23.428c-3.493-7.773-10.644-12.913-19.12-13.753l-140.625-13.927
					c-6.602-0.641-13.19,1.523-18.1,5.969c-4.909,4.447-7.722,10.793-7.722,17.417v140.063c0,12.415,9.708,22.721,22.105,23.461
					l169.052,10.064C2461.615,823.838,2462.08,823.852,2462.539,823.852z"/>
			</g>
			<g>
				<path style="fill:#91B3FA;" d="M2426.492,968.704l312.751-16.271c25.544-1.329,45.923,18.582,45.199,44.318l-8.085,287.619
					c-0.66,23.505-20.995,41.461-45.133,40.269l-296.979-14.669c-20.131-0.994-36.754-18.844-37.348-39.997l-7.243-257.636
					C2389.009,989.392,2405.393,969.802,2426.492,968.704z"/>
				<g>
					<path style="fill:#FFFFFF;" d="M2649.627,1224.225h-166.809c-3.971,0-7.384-2.824-8.123-6.727l-23.547-124.078
						c-0.852-4.486,2.096-8.815,6.582-9.666c4.492-0.837,8.813,2.096,9.664,6.583l22.27,117.351h153.794l48.012-161.617
						c0.934-3.149,3.647-5.446,6.908-5.85l56.693-7.034c4.499-0.569,8.661,2.654,9.222,7.188c0.564,4.532-2.654,8.663-7.189,9.224
						l-51.323,6.369l-48.23,162.345C2656.512,1221.82,2653.288,1224.225,2649.627,1224.225z"/>
					<path style="fill:#FFFFFF;" d="M2682.153,1097.346h-225.909c-4.568,0-8.268-3.702-8.268-8.268c0-4.567,3.7-8.268,8.268-8.268
						h225.909c4.568,0,8.268,3.702,8.268,8.268C2690.421,1093.645,2686.721,1097.346,2682.153,1097.346z"/>
					<g>
						<path style="fill:#FFFFFF;" d="M2606.335,1213.395c-4.568,0-8.268-3.702-8.268-8.268v-114.502c0-4.567,3.7-8.268,8.268-8.268
							c4.568,0,8.269,3.702,8.269,8.268v114.502C2614.603,1209.693,2610.903,1213.395,2606.335,1213.395z"/>
						<path style="fill:#FFFFFF;" d="M2528.969,1213.395c-4.568,0-8.268-3.702-8.268-8.268v-114.502c0-4.567,3.7-8.268,8.268-8.268
							s8.268,3.702,8.268,8.268v114.502C2537.237,1209.693,2533.537,1213.395,2528.969,1213.395z"/>
					</g>
					<path style="fill:#FFFFFF;" d="M2663.586,1162.333h-191.868c-4.568,0-8.269-3.702-8.269-8.268c0-4.567,3.7-8.268,8.269-8.268
						h191.868c4.568,0,8.268,3.702,8.268,8.268C2671.854,1158.631,2668.154,1162.333,2663.586,1162.333z"/>
					<g>
						
							<ellipse transform="matrix(0.1222 -0.9925 0.9925 0.1222 1047.3672 3712.6555)" style="fill:#FFFFFF;" cx="2622.55" cy="1264.222" rx="19.717" ry="19.717"/>
						
							<ellipse transform="matrix(0.7071 -0.7071 0.7071 0.7071 -161.012 2139.7268)" style="fill:#FFFFFF;" cx="2502.373" cy="1264.222" rx="19.717" ry="19.717"/>
					</g>
				</g>
			</g>
			<g>
				<path style="fill:#91B3FA;" d="M1994.324,942.788l262.238-13.643c21.418-1.114,38.506,15.581,37.899,37.16l-6.78,241.165
					c-0.554,19.708-17.604,34.765-37.844,33.765l-249.014-12.3c-16.879-0.834-30.818-15.8-31.316-33.537l-6.073-216.025
					C1962.895,960.135,1976.633,943.708,1994.324,942.788z"/>
				<path style="fill:#FFFFFF;" d="M2009.187,1160.966c-5.073,0.002-9.988-2.033-13.49-5.585c-3.393-3.441-5.218-7.953-5.139-12.706
					l2.188-130.512c0.079-4.73,2.036-9.163,5.519-12.48c3.604-3.436,8.562-5.311,13.642-5.157l251.483,7.842
					c5.037,0.157,9.863,2.322,13.239,5.943c3.261,3.497,4.954,8.013,4.773,12.718l-4.697,121.835
					c-0.366,9.65-8.486,17.236-18.484,17.268l-248.974,0.835C2009.226,1160.966,2009.206,1160.966,2009.187,1160.966z
					 M2011.299,1011.054c-0.898,0-1.433,0.414-1.624,0.597c-0.257,0.244-0.389,0.51-0.393,0.787l-2.188,130.516
					c-0.007,0.282,0.122,0.556,0.376,0.815c0.198,0.198,0.756,0.66,1.713,0.66c0.003,0,0.007,0,0.01,0l248.974-0.835
					c1.155-0.005,1.987-0.723,2.013-1.365l4.697-121.84c0.01-0.276-0.106-0.545-0.347-0.8c-0.185-0.198-0.716-0.662-1.657-0.692l0,0
					l-251.483-7.843C2011.359,1011.054,2011.329,1011.054,2011.299,1011.054z"/>
				<path style="fill:#FFFFFF;" d="M2247.976,1036.295L2247.976,1036.295c-0.105,4.208-2.799,7.555-6.018,7.474l-213.93-5.322
					c-3.219-0.08-5.743-3.556-5.639-7.765l0,0c0.105-4.208,2.799-7.555,6.018-7.475l213.93,5.322
					C2245.556,1028.61,2248.081,1032.086,2247.976,1036.295z"/>
				<path style="opacity:0.6;fill:#FFFFFF;" d="M2241.17,1071.128l-151.436-4.864c-3.295-0.106-6.031,1.854-6.113,4.377l0,0
					c-0.081,2.523,2.524,4.655,5.819,4.76l151.436,4.864c3.295,0.106,6.032-1.854,6.113-4.377l0,0
					C2247.071,1073.365,2244.465,1071.234,2241.17,1071.128z"/>
				<path style="opacity:0.6;fill:#FFFFFF;" d="M2246.514,1095.063L2246.514,1095.063c-0.063,2.519-1.884,4.517-4.067,4.463
					l-100.555-2.502c-2.183-0.054-3.903-2.141-3.84-4.66l0.07-2.82c0.064-2.563,1.944-4.577,4.163-4.459l100.485,5.321
					C2244.914,1090.521,2246.575,1092.587,2246.514,1095.063z"/>
			</g>
			<g>
				<path style="fill:#91B3FA;" d="M2679.325,514.407l308.504-16.05c25.197-1.311,45.299,18.33,44.585,43.716l-7.975,283.713
					c-0.652,23.185-20.71,40.898-44.521,39.722l-292.946-14.47c-19.857-0.981-36.255-18.588-36.841-39.454l-7.144-254.138
					C2642.35,534.813,2658.512,515.489,2679.325,514.407z"/>
				<g>
					<g>
						<g>
							<g>
								<g>
									<path style="fill:#FFFFFF;" d="M2938.934,629.322c-0.332,0.604-0.852,1.114-1.526,1.431
										c-1.691,0.794-3.708,0.069-4.504-1.625c-1.157-2.462-2.425-4.916-3.768-7.289c-0.918-1.627-0.348-3.691,1.281-4.614
										c1.627-0.921,3.692-0.347,4.614,1.281c1.424,2.52,2.771,5.124,4.001,7.742
										C2939.512,627.267,2939.438,628.405,2938.934,629.322z"/>
								</g>
							</g>
							<g>
								<g>
									<path style="fill:#FFFFFF;" d="M2936.625,730.669c-0.888,1.615-2.912,2.225-4.548,1.362
										c-1.653-0.875-2.285-2.922-1.413-4.576c2.642-4.998,4.913-10.238,6.752-15.572c0.591-1.781,2.537-2.707,4.304-2.098
										c1.768,0.61,2.707,2.537,2.098,4.304c-1.951,5.664-4.362,11.224-7.165,16.529
										C2936.643,730.636,2936.635,730.652,2936.625,730.669z M2927.293,745.461c-0.074,0.135-0.158,0.268-0.252,0.393
										c-3.575,4.809-7.553,9.379-11.825,13.589c-1.331,1.313-3.475,1.297-4.787-0.036c-1.313-1.331-1.306-3.468,0.036-4.787
										c4.023-3.967,7.773-8.276,11.142-12.806c1.115-1.501,3.237-1.812,4.737-0.698
										C2927.717,742.138,2928.094,744.002,2927.293,745.461z M2947.989,697.684c-0.681,1.239-2.096,1.964-3.564,1.701
										c-1.84-0.328-3.067-2.088-2.736-3.928c0.992-5.553,1.558-11.236,1.679-16.885c0.041-1.876,1.589-3.354,3.457-3.313
										c1.87,0.04,3.353,1.587,3.312,3.456c-0.127,6.001-0.728,12.035-1.783,17.933
										C2948.287,697.022,2948.162,697.37,2947.989,697.684z M2902.438,769.944c-0.236,0.429-0.567,0.811-0.988,1.115
										c-4.866,3.502-10.045,6.65-15.393,9.358c-1.669,0.844-3.705,0.176-4.55-1.492c-0.844-1.667-0.175-3.703,1.492-4.55
										c5.038-2.549,9.915-5.514,14.496-8.81c1.518-1.094,3.633-0.748,4.725,0.769
										C2903.008,767.43,2903.048,768.836,2902.438,769.944z M2948.748,662.802c-0.502,0.913-1.415,1.582-2.525,1.728
										c-1.853,0.245-3.554-1.06-3.8-2.913c-0.136-1.035-0.289-2.069-0.457-3.105c-0.736-4.56-1.762-9.104-3.052-13.511
										c-0.526-1.792,0.504-3.673,2.3-4.201c1.795-0.524,3.675,0.505,4.201,2.3c1.367,4.675,2.456,9.497,3.237,14.332
										c0.177,1.099,0.338,2.199,0.484,3.299C2949.235,661.474,2949.083,662.192,2948.748,662.802z M2871.327,785.69
										c-0.401,0.73-1.069,1.314-1.923,1.59c-5.681,1.841-11.572,3.262-17.51,4.222c-1.845,0.299-3.584-0.955-3.882-2.801
										c-0.299-1.844,0.953-3.583,2.802-3.882c5.597-0.906,11.149-2.246,16.502-3.98c1.779-0.577,3.688,0.397,4.265,2.176
										C2871.882,783.94,2871.761,784.901,2871.327,785.69z M2836.891,791.262c-0.572,1.04-1.672,1.749-2.943,1.757
										c-6.005,0.046-12.053-0.379-17.977-1.261c-1.85-0.275-3.126-1.997-2.851-3.846c0.271-1.845,1.996-3.127,3.846-2.851
										c5.58,0.83,11.277,1.229,16.931,1.187c1.87-0.015,3.397,1.49,3.411,3.359
										C2837.313,790.207,2837.16,790.773,2836.891,791.262z"/>
								</g>
							</g>
							<g>
								<g>
									<path style="fill:#FFFFFF;" d="M2802.273,786.101c-0.76,1.383-2.414,2.088-3.978,1.598
										c-2.766-0.868-5.529-1.849-8.211-2.918c-1.739-0.691-2.586-2.661-1.894-4.397c0.675-1.74,2.659-2.586,4.397-1.894
										c2.527,1.006,5.128,1.93,7.733,2.745c1.784,0.56,2.777,2.46,2.219,4.244
										C2802.469,785.699,2802.38,785.907,2802.273,786.101z"/>
								</g>
							</g>
						</g>
						<g>
							<g>
								<g>
									<path style="fill:#FFFFFF;" d="M2732.935,725.048c-0.337,0.614-0.868,1.13-1.556,1.444
										c-1.699,0.779-3.709,0.032-4.487-1.668c-1.202-2.623-2.321-5.332-3.33-8.055c-0.646-1.751,0.244-3.7,2.001-4.35
										c1.753-0.649,3.7,0.245,4.35,2.001c0.949,2.563,2.004,5.116,3.134,7.586
										C2733.511,723.018,2733.433,724.141,2732.935,725.048z"/>
								</g>
							</g>
							<g>
								<g>
									<path style="fill:#FFFFFF;" d="M2858.403,566.32c-0.693,1.26-2.145,1.984-3.631,1.687
										c-5.442-1.088-11.015-1.763-16.568-2.009c-1.867-0.083-3.315-1.664-3.232-3.533c0.086-1.869,1.666-3.315,3.533-3.232
										c5.895,0.262,11.814,0.978,17.593,2.134c1.834,0.367,3.023,2.15,2.657,3.983
										C2858.686,565.699,2858.565,566.025,2858.403,566.32z M2824.124,564.788c-0.515,0.938-1.463,1.616-2.608,1.738
										c-1.951,0.21-3.906,0.473-5.865,0.789c-3.547,0.573-7.1,1.323-10.558,2.231c-1.81,0.475-3.66-0.606-4.134-2.414
										c-0.477-1.806,0.604-3.66,2.414-4.134c3.671-0.965,7.44-1.76,11.199-2.367c2.078-0.335,4.153-0.615,6.222-0.836
										c1.859-0.201,3.528,1.145,3.727,3.005C2824.599,563.515,2824.446,564.203,2824.124,564.788z M2724.975,700.67
										c-0.461,0.839-1.272,1.478-2.283,1.686c-1.83,0.379-3.622-0.799-4-2.631c-0.342-1.656-0.649-3.328-0.923-5.017
										c-0.668-4.148-1.122-8.372-1.347-12.553c-0.1-1.866,1.332-3.459,3.198-3.564c1.868-0.1,3.463,1.332,3.564,3.198
										c0.213,3.944,0.639,7.928,1.271,11.84c0.256,1.589,0.545,3.165,0.867,4.727
										C2725.492,699.176,2725.349,699.99,2724.975,700.67z M2790.938,573.522c-0.349,0.636-0.904,1.163-1.619,1.474
										c-5.094,2.208-10.06,4.827-14.755,7.783c-1.583,0.995-3.673,0.522-4.669-1.061c-0.997-1.584-0.523-3.678,1.061-4.669
										c4.988-3.14,10.26-5.92,15.669-8.265c1.717-0.745,3.709,0.043,4.453,1.759
										C2791.51,571.543,2791.424,572.637,2790.938,573.522z M2723.165,666.397c-0.634,1.153-1.912,1.877-3.302,1.739
										c-1.863-0.184-3.22-1.842-3.036-3.702c0.582-5.87,1.623-11.742,3.094-17.454c0.458-1.807,2.313-2.901,4.123-2.435
										c1.812,0.466,2.902,2.312,2.435,4.123c-1.385,5.379-2.365,10.909-2.913,16.433
										C2723.517,665.57,2723.378,666.009,2723.165,666.397z M2761.908,591.789c-0.188,0.342-0.44,0.656-0.751,0.928
										c-4.194,3.631-8.15,7.62-11.757,11.851c-1.213,1.421-3.35,1.592-4.773,0.379c-1.423-1.214-1.601-3.351-0.379-4.774
										c3.828-4.489,8.025-8.72,12.476-12.576c1.413-1.223,3.552-1.07,4.777,0.343
										C2762.452,589.041,2762.57,590.583,2761.908,591.789z M2731.707,633.169c-0.829,1.508-2.681,2.169-4.296,1.479
										c-1.719-0.734-2.517-2.723-1.783-4.443c2.31-5.407,5.068-10.702,8.175-15.72c0.985-1.588,3.071-2.079,4.661-1.094
										c1.589,0.984,2.078,3.038,1.094,4.661c-2.929,4.728-5.527,9.716-7.703,14.813
										C2731.81,632.971,2731.76,633.072,2731.707,633.169z"/>
								</g>
							</g>
							<g>
								<g>
									<path style="fill:#FFFFFF;" d="M2882.893,574.196c-0.843,1.534-2.74,2.184-4.361,1.451
										c-2.473-1.12-5.029-2.162-7.598-3.103c-1.757-0.641-2.659-2.586-2.016-4.342c0.637-1.738,2.586-2.659,4.342-2.016
										c2.727,0.997,5.44,2.104,8.064,3.291c1.704,0.771,2.459,2.778,1.689,4.481
										C2882.975,574.039,2882.935,574.119,2882.893,574.196z"/>
								</g>
							</g>
						</g>
					</g>
					<g>
						<path style="fill:#FFFFFF;" d="M2892.847,696.814c-17.37,18.116-52.454,23.731-78.135,19.914
							c-22.097-3.285-30.749,1.81-33.94,5.139c-1.763,1.839-2.147,3.385-2.164,3.451c-0.423,1.769-2.093,3.011-3.909,2.846
							c-1.815-0.166-3.243-1.592-3.34-3.412c-0.108-2.05-2.209-50.703,36.891-91.484c12.756-13.304,26.566-20.081,41.048-20.144
							c21.825-0.095,36.958,15.155,37.591,15.805c0.94,0.962,1.276,2.36,0.88,3.643c-0.396,1.282-1.466,2.25-2.781,2.514
							c-8.164,1.64-15.5,3.485-22.094,5.471c9.789-0.489,20.311,0.331,31.471,2.484c0.665,0.128,1.146,0.226,1.427,0.267
							c1.407,0.074,2.657,0.955,3.196,2.276C2909.59,671.575,2901.5,687.789,2892.847,696.814z M2779.147,713.752
							c6.2-4.089,17.2-7.169,36.645-4.278c23.233,3.452,56.28-1.59,71.761-17.737c10.033-10.465,11.839-24.422,5.383-41.504
							c-40.364-7.773-71.434,2.907-88.156,30.789c-0.925,1.551-2.848,2.191-4.524,1.51c-1.674-0.679-2.604-2.476-2.191-4.234
							c0.173-0.74,1.937-7.485,10.339-16.248c9.715-10.132,29.24-23.712,67.642-32.544c-5.679-3.981-15.261-9.124-26.792-9.051
							c-12.392,0.078-24.406,6.096-35.71,17.886C2787.275,665.738,2780.733,697.576,2779.147,713.752z"/>
					</g>
				</g>
				<path style="fill:#FFFFFF;" d="M2941.365,820.737h-223.572c-28.789,0-52.208-23.42-52.208-52.209V583.774
					c0-28.787,23.419-52.208,52.208-52.208h223.572c28.789,0,52.211,23.42,52.211,52.208v184.753
					C2993.576,797.317,2970.155,820.737,2941.365,820.737z M2717.794,541.706c-23.198,0-42.068,18.872-42.068,42.068v184.753
					c0,23.198,18.87,42.07,42.068,42.07h223.572c23.198,0,42.071-18.872,42.071-42.07V583.774c0-23.196-18.874-42.068-42.071-42.068
					H2717.794z"/>
			</g>
		</g>
		<g>
			<g>
				
					<linearGradient id="SVGID_00000150098925101641801430000016926911898162206627_" gradientUnits="userSpaceOnUse" x1="-4284.938" y1="3621.4683" x2="-3784.7266" y2="4611.6841" gradientTransform="matrix(-1 0 0 1 -3328.7705 0)">
					<stop  offset="0" style="stop-color:#FEBBBA"/>
					<stop  offset="1" style="stop-color:#FF928E"/>
				</linearGradient>
				<path style="fill:url(#SVGID_00000150098925101641801430000016926911898162206627_);" d="M1858.045,1864.43
					c1.204,3.828-12.739,9.656-20.948-5.999c-0.288-7.502-4.85-39.646-0.367-45.757c23.877-32.553,70.17-73.36,70.17-73.36
					c7.824,7.72,1.378,15.304,1.378,15.304l-22.457,23.394c4.698,8.489,10.427,15.654,13.112,25.921
					c2.034,7.775,0.79,16.085-3.137,23.162c-3.942,7.101-9.32,16.333-14.405,23.559
					C1871.768,1864.327,1858.045,1864.43,1858.045,1864.43z"/>
				
					<linearGradient id="SVGID_00000051348346364710738620000011153724681645408664_" gradientUnits="userSpaceOnUse" x1="-3214.5269" y1="1693.5408" x2="-3017.1641" y2="2098.4741" gradientTransform="matrix(-1 0 0 1 -1286.9143 0)">
					<stop  offset="0" style="stop-color:#FEBBBA"/>
					<stop  offset="1" style="stop-color:#FF928E"/>
				</linearGradient>
				<path style="fill:url(#SVGID_00000051348346364710738620000011153724681645408664_);" d="M1875.999,1793.192l-20.465,17.349
					l-6.426,17.272l18.247,20.243c0,0,6.135-34.273,10.695-41.691C1882.61,1798.947,1880.246,1795.36,1875.999,1793.192z"/>
			</g>
			<g>
				
					<linearGradient id="SVGID_00000181777574401197705370000018177746054568035969_" gradientUnits="userSpaceOnUse" x1="3709.7212" y1="13661.2012" x2="3547.4844" y2="13938.3564" gradientTransform="matrix(1 0 0 1 -8304.0527 0)">
					<stop  offset="0" style="stop-color:#09005D"/>
					<stop  offset="1" style="stop-color:#1A0F91"/>
				</linearGradient>
				<path style="fill:url(#SVGID_00000181777574401197705370000018177746054568035969_);" d="M1456.05,3142.076
					c0,0-5.17,29.269-7.705,58.243c-0.991,11.323,7.739,21.154,19.096,21.628c38.584,1.606,121.117,4.731,150.733,3.409
					c4.452-0.198,7.363-4.756,5.716-8.897l0,0c-1.382-3.469-4.044-6.275-7.437-7.834l-136.329-62.656L1456.05,3142.076z"/>
				
					<linearGradient id="SVGID_00000078747597447952463300000017987696008646155194_" gradientUnits="userSpaceOnUse" x1="9755.8672" y1="3141.9551" x2="9800.2109" y2="3141.9551" gradientTransform="matrix(1 0 0 1 -8304.0527 0)">
					<stop  offset="0" style="stop-color:#FEBBBA"/>
					<stop  offset="1" style="stop-color:#FF928E"/>
				</linearGradient>
				<path style="fill:url(#SVGID_00000078747597447952463300000017987696008646155194_);" d="M1451.814,3124.879l4.154,35.01
					c0,0,23.881,11.117,40.19-1.401l-9.89-39.016L1451.814,3124.879z"/>
				
					<linearGradient id="SVGID_00000142874444150302295230000010264524399238882709_" gradientUnits="userSpaceOnUse" x1="3456.1367" y1="13512.7881" x2="3293.8992" y2="13789.9443" gradientTransform="matrix(1 0 0 1 -8304.0527 0)">
					<stop  offset="0" style="stop-color:#09005D"/>
					<stop  offset="1" style="stop-color:#1A0F91"/>
				</linearGradient>
				<path style="fill:url(#SVGID_00000142874444150302295230000010264524399238882709_);" d="M1454.936,2466.681
					c-1.795,9.142-9.631,456.239,38.16,656.598c0.78,3.269-0.878,6.639-3.989,7.91c-7.33,2.995-21.7,7.332-38.922,7.91
					c-5.334,0.179-10.115-3.287-11.62-8.406c-13.661-46.486-79.122-279.396-87.662-501.889c-9.542-248.613,0-8.465,0-8.465
					l5.597-153.677L1454.936,2466.681z"/>
				
					<linearGradient id="SVGID_00000074432606264536368440000013134115632529100205_" gradientUnits="userSpaceOnUse" x1="3553.7651" y1="13569.9385" x2="3391.5276" y2="13847.0947" gradientTransform="matrix(1 0 0 1 -8304.0527 0)">
					<stop  offset="0" style="stop-color:#09005D"/>
					<stop  offset="1" style="stop-color:#1A0F91"/>
				</linearGradient>
				<path style="fill:url(#SVGID_00000074432606264536368440000013134115632529100205_);" d="M1299.226,3157.346
					c0,0-8.23,14.776-16.198,54.04c-1.438,7.091,3.516,13.878,10.717,14.585c12.74,1.253,32.354,2.864,48.064,2.756
					c7.243-0.05,12.895-6.356,12.022-13.546c-1.74-14.332-7.162-37.845-23.91-56.172L1299.226,3157.346z"/>
				
					<linearGradient id="SVGID_00000052085693108627216510000016297988246030558372_" gradientUnits="userSpaceOnUse" x1="9596.0508" y1="3139.6814" x2="9634.3379" y2="3139.6814" gradientTransform="matrix(1 0 0 1 -8304.0527 0)">
					<stop  offset="0" style="stop-color:#FEBBBA"/>
					<stop  offset="1" style="stop-color:#FF928E"/>
				</linearGradient>
				<path style="fill:url(#SVGID_00000052085693108627216510000016297988246030558372_);" d="M1291.998,3112.315l9.706,52.944
					c0,0,9.597,7.139,28.581,1.964l-4.633-56.965L1291.998,3112.315z"/>
				
					<linearGradient id="SVGID_00000025410700021893797210000006241536892156758917_" gradientUnits="userSpaceOnUse" x1="3367.9595" y1="13461.1709" x2="3205.7222" y2="13738.3271" gradientTransform="matrix(1 0 0 1 -8304.0527 0)">
					<stop  offset="0" style="stop-color:#09005D"/>
					<stop  offset="1" style="stop-color:#1A0F91"/>
				</linearGradient>
				<path style="fill:url(#SVGID_00000025410700021893797210000006241536892156758917_);" d="M1265.777,2480.4
					c-39.087,235.892,8.479,583.027,24.52,650.969c0.982,4.16,4.339,7.347,8.555,8.045c7.161,1.187,18.949,2.155,30.572-1.22
					c4.004-1.162,6.817-4.774,6.981-8.942c2.152-54.929-1.722-392.144,34.699-525.412c1.845-6.754,5.97-12.644,11.676-16.701
					l70.689-50.253l5.419-81.231L1265.777,2480.4z"/>
				<g>
					
						<linearGradient id="SVGID_00000041257445932090725900000005523123178284174781_" gradientUnits="userSpaceOnUse" x1="-2627.9448" y1="2145.0857" x2="-2937.98" y2="2473.0935" gradientTransform="matrix(-1 0 0 1 -1286.9143 0)">
						<stop  offset="0" style="stop-color:#4F52FF"/>
						<stop  offset="1" style="stop-color:#4042E2"/>
					</linearGradient>
					<path style="fill:url(#SVGID_00000041257445932090725900000005523123178284174781_);" d="M1514.839,2033.431
						c-117.136-1.935-246.382,30.756-246.382,30.756c-34.916,203.733-6.106,438.724-6.106,438.724
						c90.683,23.781,192.98-14.539,192.98-14.539c15.072-85.156,85.395-324.811,85.395-324.811
						c57.232-7.103,104.379-23.616,143.205-45.446c-29.616-34.329-43.577-78.01-49.641-103.832
						C1592.876,2027.153,1550.969,2034.028,1514.839,2033.431z"/>
					
						<linearGradient id="SVGID_00000084511437151055014310000007483353939678952077_" gradientUnits="userSpaceOnUse" x1="-4244.9707" y1="3601.2766" x2="-3744.7595" y2="4591.4917" gradientTransform="matrix(-1 0 0 1 -3328.7705 0)">
						<stop  offset="0" style="stop-color:#FEBBBA"/>
						<stop  offset="1" style="stop-color:#FF928E"/>
					</linearGradient>
					<path style="fill:url(#SVGID_00000084511437151055014310000007483353939678952077_);" d="M1860.838,1860.895
						c-11.507-13.898-26.07-7.323-26.07-7.323c-17.238,72.814-107.621,131.852-200.477,160.71
						c6.064,25.822,20.025,69.503,49.641,103.832C1838.035,2031.468,1860.838,1860.895,1860.838,1860.895z"/>
				</g>
				
					<linearGradient id="SVGID_00000072271129111235730150000015162786695017877927_" gradientUnits="userSpaceOnUse" x1="-2554.2747" y1="2214.719" x2="-2864.3083" y2="2542.7256" gradientTransform="matrix(-1 0 0 1 -1286.9143 0)">
					<stop  offset="0" style="stop-color:#4F52FF"/>
					<stop  offset="1" style="stop-color:#4042E2"/>
				</linearGradient>
				<path style="fill:url(#SVGID_00000072271129111235730150000015162786695017877927_);" d="M1313.386,2177.609l-44.928-113.422
					c0,0-109.411,74.34-127.405,168.596c20.673,1.522,58.292,6.9,95.114,25.492
					C1244.258,2213.769,1313.386,2177.609,1313.386,2177.609z"/>
				
					<linearGradient id="SVGID_00000051345572026377598890000010488063756020263564_" gradientUnits="userSpaceOnUse" x1="9662.7559" y1="1999.4672" x2="9776.1055" y2="1999.4672" gradientTransform="matrix(1 0 0 1 -8304.0527 0)">
					<stop  offset="0" style="stop-color:#FEBBBA"/>
					<stop  offset="1" style="stop-color:#FF928E"/>
				</linearGradient>
				<path style="fill:url(#SVGID_00000051345572026377598890000010488063756020263564_);" d="M1396.191,1938.334l-37.271,107.785
					c-0.617,1.785,0.117,3.762,1.77,4.677c10.16,5.617,46.763,21.854,90.873-6.113c4.595-2.913,7.723-7.664,8.421-13.061
					l12.069-93.287H1396.191z"/>
				<g>
					
						<linearGradient id="SVGID_00000163765008303582367270000011750079663952080558_" gradientUnits="userSpaceOnUse" x1="1670.6842" y1="5151.5234" x2="1628.3263" y2="5011.8174" gradientTransform="matrix(0.746 -0.6659 0.6659 0.746 -3177.7173 -803.1727)">
						<stop  offset="0" style="stop-color:#FEBBBA"/>
						<stop  offset="1" style="stop-color:#FF928E"/>
					</linearGradient>
					<path style="fill:url(#SVGID_00000163765008303582367270000011750079663952080558_);" d="M1477.286,1838.523
						c0,0,40.927,77.041,35.682,108.162c-5.246,31.12-55.969,28.886-100.262,3.61l-30.951-83.187L1477.286,1838.523z"/>
					
						<linearGradient id="SVGID_00000128443318185892968490000000868374862762541696_" gradientUnits="userSpaceOnUse" x1="8855.1025" y1="-7264.0469" x2="8692.8652" y2="-6986.8906" gradientTransform="matrix(0.746 -0.6659 0.6659 0.746 -3177.7173 -803.1727)">
						<stop  offset="0" style="stop-color:#09005D"/>
						<stop  offset="1" style="stop-color:#1A0F91"/>
					</linearGradient>
					<path style="fill:url(#SVGID_00000128443318185892968490000000868374862762541696_);" d="M1414.663,1909.443
						c1.8-0.798,2.464-3,1.386-4.647c-3.279-5.009-9.426-15.229-11.387-24.175c0,0-7.357-4.713,18.727-10.955
						c26.083-6.244,64.981-15.935,73.157-38.136c7.972-21.646-12.972-76.084-46.388-32.709c-1.271,1.65-3.761,1.686-5.031,0.035
						c-5.478-7.13-19.88-21.928-39.874-12.956c-18.71,8.395-20.818,22.106-20.561,29.017c0.075,2.032-1.742,3.613-3.74,3.231
						c-9.46-1.804-32.161-3.354-42.757,19.934c-8.728,19.182-3.055,30.041,2.111,35.351c1.675,1.72,0.941,4.554-1.355,5.256
						c-6.217,1.903-14.245,7.175-13.442,21.741c1.111,20.137,23.625,18.363,30.035,17.445c1.051-0.151,2.109,0.21,2.82,0.997
						c5.496,6.083,30.26,31.909,57.062,35.022c2.32,0.269,4.119-2.023,3.359-4.232l-11.599-33.717
						c-0.539-1.566,0.211-3.283,1.724-3.954L1414.663,1909.443z"/>
					
						<linearGradient id="SVGID_00000026165811765280124490000012580319214952912018_" gradientUnits="userSpaceOnUse" x1="1627.384" y1="5150.8726" x2="1589.2739" y2="5025.1768" gradientTransform="matrix(0.746 -0.6659 0.6659 0.746 -3177.7173 -803.1727)">
						<stop  offset="0" style="stop-color:#FEBBBA"/>
						<stop  offset="1" style="stop-color:#FF928E"/>
					</linearGradient>
					<path style="fill:url(#SVGID_00000026165811765280124490000012580319214952912018_);" d="M1419.325,1914.229
						c0,0-29.14-19.994-31.269-3.157c-2.129,16.837,26.241,24.388,40.293,18.111L1419.325,1914.229z"/>
				</g>
				
					<linearGradient id="SVGID_00000056415453461024576330000004312014452076675735_" gradientUnits="userSpaceOnUse" x1="3469.1631" y1="2832.9023" x2="3377.0112" y2="2171.0825" gradientTransform="matrix(1 0 0 1 -2205.3728 0)">
					<stop  offset="0" style="stop-color:#FEBBBA"/>
					<stop  offset="1" style="stop-color:#FF928E"/>
				</linearGradient>
				<path style="fill:url(#SVGID_00000056415453461024576330000004312014452076675735_);" d="M1236.166,2258.275
					c0,0-38.242,172.521-3.601,269.512c-42.467,19.69-34.622,15.979-34.622,15.979s-84.014-245.469-56.891-310.983
					C1194.527,2227.109,1221.053,2241.478,1236.166,2258.275z"/>
				
					<linearGradient id="SVGID_00000107584644507812455790000013794772648073832074_" gradientUnits="userSpaceOnUse" x1="3458.1897" y1="2769.2383" x2="3384.6523" y2="2241.1047" gradientTransform="matrix(1 0 0 1 -2205.3728 0)">
					<stop  offset="0" style="stop-color:#FEBBBA"/>
					<stop  offset="1" style="stop-color:#FF928E"/>
				</linearGradient>
				<path style="fill:url(#SVGID_00000107584644507812455790000013794772648073832074_);" d="M1232.565,2527.787
					c0,0,21.884,28.323,20.133,39.604c-1.75,11.281-2.168,15.877-2.168,15.877s-10.996-7.521-10.303-17.131
					c1.529,30.501,11.737,65.181,2.455,63.51c-9.282-1.671-57.332-45.961-46.469-93.176
					C1220.864,2519.341,1227.775,2521.204,1232.565,2527.787z"/>
			</g>
		</g>
		<g>
			<g>
				
					<linearGradient id="SVGID_00000033368299938216102270000009446172198657020835_" gradientUnits="userSpaceOnUse" x1="1184.4536" y1="2506.4287" x2="1293.5853" y2="2506.4287">
					<stop  offset="0" style="stop-color:#E1473D"/>
					<stop  offset="1" style="stop-color:#E9605A"/>
				</linearGradient>
				<path style="fill:url(#SVGID_00000033368299938216102270000009446172198657020835_);" d="M1191.18,2576.749
					c-3.714,0-6.725-3.011-6.726-6.724c0-1.28,0.035-31.704,3.949-63.107c5.7-45.742,16.604-68.867,33.336-70.693
					c6.892-0.736,13.906,2.031,20.857,8.263c27,24.215,50.989,100.72,50.989,105.031c0,3.715-3.011,6.726-6.726,6.726
					c-3.347,0-6.123-2.446-6.64-5.646c-4.023-17.415-35.395-103.276-57.022-101.001c-15.643,1.708-25.307,63.838-25.291,120.421
					c0.001,3.715-3.01,6.729-6.725,6.729H1191.18z"/>
				<g>
					
						<linearGradient id="SVGID_00000138574599245130739620000007327234763275876489_" gradientUnits="userSpaceOnUse" x1="3468.4963" y1="8001.0005" x2="3901.1301" y2="7615.6855" gradientTransform="matrix(-1 0 0 1 10659.6221 0)">
						<stop  offset="0" style="stop-color:#FF928E"/>
						<stop  offset="1" style="stop-color:#FE7062"/>
					</linearGradient>
					<path style="fill:url(#SVGID_00000138574599245130739620000007327234763275876489_);" d="M1138.367,2561.199l192.934-35.644
						c2.79-0.512,4.959,1.26,5.599,4.023l67.355,293.062c0.334,1.442-0.082,2.955-0.916,4.177c-0.834,1.221-2.205,2.041-3.667,2.26
						l-261.643,38.931c-1.525,0.228-0.981-0.222-2.152-1.228c-1.168-1.007,0.254-2.474,0.254-4.016v-296.349
						C1136.131,2563.856,1135.851,2561.662,1138.367,2561.199z"/>
					
						<linearGradient id="SVGID_00000090984076670501088360000004745679730334615687_" gradientUnits="userSpaceOnUse" x1="9053.4775" y1="4264.1953" x2="9023.0576" y2="4427.5591" gradientTransform="matrix(-1 0 0 1 10659.6221 0)">
						<stop  offset="0" style="stop-color:#E1473D"/>
						<stop  offset="1" style="stop-color:#E9605A"/>
					</linearGradient>
					<path style="fill:url(#SVGID_00000090984076670501088360000004745679730334615687_);" d="M1279.918,2549.52
						c0,3.833,3.108,6.941,6.941,6.941c3.833,0,6.941-3.108,6.941-6.941c0-3.834-3.107-6.941-6.941-6.941
						C1283.026,2542.579,1279.918,2545.686,1279.918,2549.52z"/>
					
						<linearGradient id="SVGID_00000156589907478239082650000010679288110482225058_" gradientUnits="userSpaceOnUse" x1="9149.6377" y1="4282.1143" x2="9119.2178" y2="4445.479" gradientTransform="matrix(-1 0 0 1 10659.6221 0)">
						<stop  offset="0" style="stop-color:#E1473D"/>
						<stop  offset="1" style="stop-color:#E9605A"/>
					</linearGradient>
					<path style="fill:url(#SVGID_00000156589907478239082650000010679288110482225058_);" d="M1184.239,2570.023
						c0,3.833,3.107,6.941,6.941,6.941c3.833,0,6.941-3.108,6.941-6.941c0-3.834-3.108-6.941-6.941-6.941
						C1187.346,2563.082,1184.239,2566.189,1184.239,2570.023z"/>
				</g>
				<g style="opacity:0.52;">
					<g>
						<g>
							<g>
								<g>
									<path style="fill:#FFFFFF;" d="M1330.066,2756.68c-0.564,0-1.134-0.172-1.626-0.53c-1.235-0.899-1.51-2.63-0.609-3.866
										c1.308-1.799,2.566-3.673,3.738-5.569c0.804-1.299,2.507-1.703,3.81-0.898c1.3,0.803,1.703,2.508,0.899,3.81
										c-1.245,2.012-2.58,4.003-3.971,5.915C1331.766,2756.285,1330.921,2756.68,1330.066,2756.68z"/>
								</g>
							</g>
							<g>
								<g>
									<path style="fill:#FFFFFF;" d="M1256.552,2794.935c-1.507,0-2.741-1.209-2.766-2.722c-0.024-1.528,1.193-2.788,2.722-2.813
										c4.621-0.076,9.269-0.512,13.814-1.295c1.508-0.278,2.938,0.751,3.197,2.257c0.26,1.507-0.751,2.938-2.257,3.198
										c-4.826,0.833-9.759,1.295-14.663,1.376C1256.599,2794.935,1256.568,2794.935,1256.552,2794.935z M1242.281,2794.074
										c-0.125,0-0.254-0.008-0.381-0.026c-4.853-0.668-9.694-1.718-14.391-3.12c-1.465-0.437-2.297-1.979-1.86-3.444
										c0.437-1.465,1.97-2.302,3.443-1.859c4.426,1.32,8.99,2.31,13.562,2.939c1.515,0.208,2.573,1.605,2.365,3.119
										C1244.828,2793.07,1243.642,2794.074,1242.281,2794.074z M1284.658,2790.087c-1.156,0-2.233-0.729-2.622-1.884
										c-0.489-1.447,0.288-3.019,1.736-3.507c4.369-1.476,8.663-3.308,12.758-5.446c1.36-0.709,3.029-0.182,3.734,1.172
										c0.708,1.355,0.184,3.027-1.172,3.734c-4.349,2.271-8.909,4.218-13.549,5.784
										C1285.25,2790.04,1284.951,2790.087,1284.658,2790.087z M1214.953,2785.91c-0.4,0-0.804-0.086-1.188-0.269
										c-4.424-2.107-8.719-4.577-12.766-7.342c-1.262-0.864-1.585-2.585-0.723-3.847c0.862-1.261,2.584-1.584,3.847-0.723
										c3.81,2.605,7.855,4.931,12.02,6.915c1.381,0.657,1.966,2.308,1.31,3.688
										C1216.979,2785.327,1215.987,2785.91,1214.953,2785.91z M1309.946,2776.895c-0.851,0-1.691-0.391-2.232-1.128
										c-0.906-1.231-0.641-2.964,0.591-3.869c0.688-0.505,1.369-1.022,2.045-1.55c2.977-2.323,5.829-4.848,8.477-7.507
										c1.077-1.083,2.83-1.085,3.915-0.007c1.082,1.08,1.085,2.831,0.007,3.915c-2.811,2.821-5.837,5.499-8.993,7.963
										c-0.718,0.559-1.442,1.108-2.173,1.646C1311.089,2776.72,1310.515,2776.895,1309.946,2776.895z M1191.422,2769.823
										c-0.681,0-1.362-0.249-1.896-0.751c-3.556-3.345-6.894-7.006-9.92-10.882c-0.94-1.204-0.727-2.943,0.478-3.884
										c1.203-0.94,2.942-0.728,3.884,0.479c2.853,3.653,5.999,7.103,9.349,10.255c1.114,1.047,1.168,2.799,0.12,3.912
										C1192.894,2769.531,1192.159,2769.823,1191.422,2769.823z M1173.87,2747.347c-0.97,0-1.911-0.509-2.418-1.416
										c-2.398-4.284-4.475-8.784-6.176-13.375c-0.531-1.434,0.2-3.026,1.632-3.557c1.428-0.532,3.026,0.199,3.557,1.633
										c1.603,4.325,3.56,8.563,5.817,12.597c0.748,1.334,0.27,3.02-1.064,3.766
										C1174.791,2747.233,1174.327,2747.347,1173.87,2747.347z"/>
								</g>
							</g>
							<g>
								<g>
									<path style="fill:#FFFFFF;" d="M1163.935,2720.514c-1.291,0-2.446-0.907-2.711-2.22c-0.468-2.323-0.853-4.69-1.143-7.031
										c-0.189-1.518,0.888-2.9,2.404-3.088c1.512-0.201,2.9,0.886,3.088,2.404c0.274,2.207,0.637,4.434,1.078,6.621
										c0.302,1.499-0.669,2.958-2.166,3.261C1164.3,2720.497,1164.116,2720.514,1163.935,2720.514z"/>
								</g>
							</g>
						</g>
						<g>
							<g>
								<g>
									<path style="fill:#FFFFFF;" d="M1180.369,2646.799c-0.573,0-1.151-0.177-1.647-0.546c-1.227-0.911-1.484-2.645-0.572-3.872
										c1.406-1.893,2.906-3.762,4.46-5.557c1-1.153,2.746-1.282,3.904-0.28c1.156,1,1.281,2.748,0.28,3.904
										c-1.462,1.689-2.876,3.45-4.2,5.233C1182.05,2646.412,1181.215,2646.799,1180.369,2646.799z"/>
								</g>
							</g>
							<g>
								<g>
									<path style="fill:#FFFFFF;" d="M1343.488,2674.179c-1.176,0-2.266-0.755-2.638-1.937c-1.364-4.327-3.074-8.586-5.085-12.66
										c-0.676-1.37-0.114-3.03,1.258-3.707c1.373-0.675,3.031-0.112,3.707,1.258c2.134,4.326,3.952,8.849,5.399,13.444
										c0.459,1.458-0.35,3.012-1.807,3.472C1344.045,2674.137,1343.764,2674.179,1343.488,2674.179z M1331.088,2649.018
										c-0.874,0-1.734-0.412-2.272-1.184c-0.919-1.315-1.877-2.613-2.874-3.891c-1.807-2.315-3.744-4.565-5.756-6.686
										c-1.053-1.109-1.007-2.861,0.101-3.912c1.106-1.053,2.86-1.008,3.912,0.101c2.137,2.25,4.191,4.636,6.106,7.091
										c1.058,1.357,2.076,2.733,3.049,4.129c0.876,1.253,0.569,2.979-0.685,3.853
										C1332.186,2648.857,1331.634,2649.018,1331.088,2649.018z M1194.698,2631.496c-0.783,0-1.56-0.33-2.107-0.972
										c-0.992-1.162-0.854-2.91,0.31-3.902c1.051-0.897,2.128-1.776,3.231-2.636c2.708-2.113,5.556-4.1,8.463-5.909
										c1.297-0.807,3.003-0.408,3.812,0.888c0.807,1.299,0.409,3.006-0.888,3.813c-2.742,1.705-5.427,3.58-7.982,5.573
										c-1.038,0.81-2.053,1.636-3.045,2.482C1195.973,2631.279,1195.333,2631.496,1194.698,2631.496z M1311.762,2628.683
										c-0.593,0-1.189-0.189-1.693-0.58c-3.588-2.78-7.419-5.306-11.386-7.506c-1.336-0.742-1.82-2.426-1.078-3.762
										c0.742-1.338,2.428-1.823,3.762-1.079c4.214,2.337,8.282,5.019,12.091,7.971c1.209,0.937,1.43,2.675,0.493,3.883
										C1313.405,2628.314,1312.588,2628.683,1311.762,2628.683z M1218.539,2616.704c-1.076,0-2.097-0.631-2.546-1.681
										c-0.601-1.407,0.052-3.033,1.457-3.633c4.434-1.895,9.051-3.461,13.722-4.657c1.474-0.384,2.99,0.515,3.368,1.995
										c0.38,1.481-0.514,2.99-1.995,3.368c-4.399,1.126-8.747,2.601-12.92,4.384
										C1219.27,2616.631,1218.901,2616.704,1218.539,2616.704z M1287.244,2615.079c-0.319,0-0.643-0.057-0.961-0.173
										c-4.253-1.574-8.668-2.838-13.12-3.756c-1.496-0.31-2.46-1.773-2.151-3.271c0.31-1.497,1.77-2.466,3.271-2.151
										c4.723,0.974,9.407,2.315,13.922,3.985c1.433,0.531,2.165,2.123,1.635,3.557
										C1289.427,2614.387,1288.369,2615.079,1287.244,2615.079z M1245.707,2609.738c-1.407,0-2.61-1.066-2.751-2.495
										c-0.151-1.52,0.959-2.876,2.481-3.027c4.783-0.474,9.663-0.584,14.481-0.334c1.526,0.08,2.699,1.381,2.619,2.908
										c-0.08,1.526-1.358,2.685-2.908,2.619c-4.541-0.237-9.137-0.134-13.646,0.315
										C1245.889,2609.734,1245.797,2609.738,1245.707,2609.738z"/>
								</g>
							</g>
							<g>
								<g>
									<path style="fill:#FFFFFF;" d="M1347.49,2694.825c-1.431,0-2.643-1.103-2.757-2.553c-0.172-2.212-0.431-4.454-0.769-6.665
										c-0.232-1.511,0.806-2.923,2.317-3.154c1.496-0.229,2.923,0.805,3.154,2.316c0.359,2.346,0.635,4.726,0.818,7.073
										c0.119,1.525-1.022,2.856-2.545,2.975C1347.635,2694.822,1347.562,2694.825,1347.49,2694.825z"/>
								</g>
							</g>
						</g>
					</g>
					<g>
						<path style="fill:#FFFFFF;" d="M1263.567,2750.24c-19.818-5.31-37.656-28.233-45.035-48.134
							c-6.348-17.124-13.406-21.316-17.047-22.291c-2.012-0.539-3.271-0.206-3.324-0.192c-1.434,0.394-2.981-0.314-3.578-1.68
							c-0.596-1.366-0.137-2.95,1.13-3.736c1.426-0.885,35.454-21.549,80.066-9.597c14.554,3.899,24.847,11.125,30.595,21.474
							c8.663,15.598,3.697,32.444,3.48,33.154c-0.319,1.052-1.188,1.844-2.263,2.065c-1.075,0.221-2.189-0.164-2.896-1.002
							c-4.39-5.203-8.6-9.732-12.62-13.674c4.205,6.821,7.761,14.681,10.614,23.524c0.17,0.526,0.289,0.91,0.371,1.128
							c0.501,1.038,0.362,2.279-0.372,3.186C1288.241,2752.297,1273.44,2752.885,1263.567,2750.24z M1206.659,2675.457
							c5.371,2.831,11.909,9.499,17.495,24.567c6.676,18.003,23.302,39.693,40.965,44.425c11.448,3.067,22.158-1.135,31.853-12.488
							c-10.326-31.977-30.212-50.031-56.772-51.03c-1.475-0.052-2.691-1.177-2.864-2.646c-0.173-1.467,0.749-2.84,2.171-3.237
							c0.598-0.167,6.125-1.56,15.711,1.009c11.084,2.97,28.502,11.611,49.951,35.643c0.616-5.636,0.526-14.526-4.066-22.758
							c-4.936-8.847-13.978-15.084-26.876-18.54C1244.257,2662.373,1218.872,2670.222,1206.659,2675.457z"/>
					</g>
				</g>
			</g>
			
				<linearGradient id="SVGID_00000120522314136020160930000003966788109548815776_" gradientUnits="userSpaceOnUse" x1="9537.3105" y1="2355.7991" x2="9512.8633" y2="2104.3433" gradientTransform="matrix(-1 0 0 1 10659.6221 0)">
				<stop  offset="0" style="stop-color:#A22B25"/>
				<stop  offset="1" style="stop-color:#C0423C"/>
			</linearGradient>
			<path style="fill:url(#SVGID_00000120522314136020160930000003966788109548815776_);" d="M1014.216,2200.726
				c0,0,79.05,180.367,191.431,208.291c21.748,4.235,47.3,2.376,58.725,9.477c12.982,8.069-2.805,29.819-9.122,46.309
				c-6.315,16.487-8.769,8.77-11.576,3.508c-2.807-5.263,9.005-21.868-6.431-28.416c-15.437-6.548-10.759,3.508-3.508,12.161
				c7.251,8.653,7.016,21.985,6.548,22.687c-0.467,0.702-12.162-5.145-23.154-10.291c-9.432-4.415-14.718-16.552-16.033-19.916
				c-22.253-2.594-161.525-24.496-220.731-170.955C980.365,2273.58,974.664,2128.177,1014.216,2200.726z"/>
			
				<linearGradient id="SVGID_00000020395012743096167960000008305178269308964008_" gradientUnits="userSpaceOnUse" x1="8145.8027" y1="5806.0024" x2="7983.5654" y2="6083.1587" gradientTransform="matrix(-0.997 0.0777 0.0777 0.997 10429.6826 -157.9383)">
				<stop  offset="0" style="stop-color:#09005D"/>
				<stop  offset="1" style="stop-color:#1A0F91"/>
			</linearGradient>
			<path style="fill:url(#SVGID_00000020395012743096167960000008305178269308964008_);" d="M674.153,3190.356l-1.545,35.707
				c-0.293,6.773-5.162,12.491-11.819,13.782c-11.237,2.179-29.331,4.926-47.281,4.432c-7.879-0.216-13.569-7.734-11.772-15.409
				c3.275-13.992,9.617-35.109,20.124-48.064l39.237-3.059C668.352,3177.178,674.467,3183.086,674.153,3190.356z"/>
			
				<linearGradient id="SVGID_00000182510406174501785920000006223062798121768091_" gradientUnits="userSpaceOnUse" x1="9665.2783" y1="2897.5117" x2="9774.4648" y2="1621.3889" gradientTransform="matrix(-0.997 0.0777 0.0777 0.997 10429.6826 -157.9383)">
				<stop  offset="0" style="stop-color:#A22B25"/>
				<stop  offset="1" style="stop-color:#C0423C"/>
			</linearGradient>
			<path style="fill:url(#SVGID_00000182510406174501785920000006223062798121768091_);" d="M949.168,2752.043l9.66,38.442
				c0,0-4.662,226.374-1.6,316.54c0.479,14.136,5.21,27.775,13.54,39.205l43.447,59.618l-102.519-50.193l-2.883-11.808
				l14.324-23.311l-40.638-250.021c-2.387-14.687-0.493-29.751,5.458-43.391l17.303-39.665L949.168,2752.043z"/>
			
				<linearGradient id="SVGID_00000003099778400218991130000006126718362589102242_" gradientUnits="userSpaceOnUse" x1="7909.3149" y1="5667.5659" x2="7747.0776" y2="5944.7222" gradientTransform="matrix(-0.997 0.0777 0.0777 0.997 10429.6826 -157.9383)">
				<stop  offset="0" style="stop-color:#09005D"/>
				<stop  offset="1" style="stop-color:#1A0F91"/>
			</linearGradient>
			<path style="fill:url(#SVGID_00000003099778400218991130000006126718362589102242_);" d="M1021.377,3214.417l-31.277,2.439
				c-5.854,0.457-11.585-1.801-15.517-6.162c-10.739-11.909-32.867-35.053-42.577-34.945c-13.071,0.145-7.803,46.244-7.803,46.244
				l-7.289,0.568l-13.712-56.725c-3.45-14.272,2.622-29.151,15.072-36.935l0,0c0,0,4.687,21.751,21.563,30.219
				c16.876,8.466,69.062,39.432,69.062,39.432s5.992-1.337,12.739-0.653C1031.644,3198.914,1031.405,3213.635,1021.377,3214.417z"/>
			
				<linearGradient id="SVGID_00000162319433923037845670000009296476539351306906_" gradientUnits="userSpaceOnUse" x1="9884.9131" y1="2916.5195" x2="9994.1309" y2="1640.0383" gradientTransform="matrix(-0.997 0.0777 0.0777 0.997 10429.6826 -157.9383)">
				<stop  offset="0" style="stop-color:#A22B25"/>
				<stop  offset="1" style="stop-color:#C0423C"/>
			</linearGradient>
			<path style="fill:url(#SVGID_00000162319433923037845670000009296476539351306906_);" d="M816.369,2781.014
				c0,0-110.709,256.587-126.975,314.468c-16.265,57.88-19.841,105.386-19.771,109.853c0.109,6.98-8.011,14.316-31.825,16.173
				c-12.29,0.958-18.693-3.499-22.012-8.038c-2.832-3.872-3.359-8.953-1.574-13.405c6.33-15.796,26.39-66.263,33.505-88.998
				c8.494-27.144,21.879-148.2,31.086-190.645c9.208-42.444,19.763-88.53,70.712-134.195
				C749.515,2786.226,783.867,2746.898,816.369,2781.014z"/>
			
				<linearGradient id="SVGID_00000160181639649009313480000001641007933951984004_" gradientUnits="userSpaceOnUse" x1="-2278.1221" y1="1940.6467" x2="-2177.0239" y2="2266.4067" gradientTransform="matrix(-1 0 0 1 -1286.9143 0)">
				<stop  offset="0" style="stop-color:#4F52FF"/>
				<stop  offset="1" style="stop-color:#4042E2"/>
			</linearGradient>
			<path style="fill:url(#SVGID_00000160181639649009313480000001641007933951984004_);" d="M866.958,2370.781
				c22.442-144.63-68.725-218.332-68.725-218.332c27.237-30.555,68.433-53.684,100.021-68.322
				c28.534-13.222,62.235-8.506,86.032,12.054c26.183,22.62,54.667,54.657,50.85,84.647c-4.04,31.744-50.878,192.216-50.878,192.216
				S931.72,2403.114,866.958,2370.781z"/>
			
				<linearGradient id="SVGID_00000074400368496126830200000008447035031260486799_" gradientUnits="userSpaceOnUse" x1="1829.25" y1="991.7515" x2="1667.0128" y2="1268.9071">
				<stop  offset="0" style="stop-color:#09005D"/>
				<stop  offset="1" style="stop-color:#1A0F91"/>
			</linearGradient>
			<path style="fill:url(#SVGID_00000074400368496126830200000008447035031260486799_);" d="M798.133,2446.884
				c10.436-42.153,68.826-76.102,68.826-76.102c64.762,32.333,117.299,2.263,117.299,2.263s15.879,45.806,10.824,89.92
				c-5.055,44.114-36.253,327.521-36.253,327.521c-82.151,23.421-213.171-0.498-213.171-0.498
				C791.464,2691.447,787.697,2489.037,798.133,2446.884z"/>
			
				<linearGradient id="SVGID_00000055682698003338142990000012144513192114698130_" gradientUnits="userSpaceOnUse" x1="924.6825" y1="2002.4618" x2="912.8525" y2="2200.1892">
				<stop  offset="0" style="stop-color:#A22B25"/>
				<stop  offset="1" style="stop-color:#C0423C"/>
			</linearGradient>
			<path style="fill:url(#SVGID_00000055682698003338142990000012144513192114698130_);" d="M903.077,1994.751l-17.705,124.519
				c-1.768,10.984,7.922,8.454,18.662,5.548c17.587-4.757,40.052-13.481,46.66-27.97c0.672-1.475,0.939-3.104,1.035-4.721
				l5.089-85.784c0.404-6.806-3.746-13.057-10.174-15.328l-23.371-8.255C914.274,1979.582,904.593,1985.329,903.077,1994.751z"/>
			<g>
				
					<linearGradient id="SVGID_00000031207080997910910850000004408955867202475665_" gradientUnits="userSpaceOnUse" x1="4846.5269" y1="-2873.7766" x2="4995.2441" y2="-2736.8887" gradientTransform="matrix(-0.991 0.1338 0.1338 0.991 10239.4775 -782.9296)">
					<stop  offset="0" style="stop-color:#A22B25"/>
					<stop  offset="1" style="stop-color:#C0423C"/>
				</linearGradient>
				<path style="fill:url(#SVGID_00000031207080997910910850000004408955867202475665_);" d="M922.671,1895.983
					c0,0,37.883,10.296,69.244,58.797c31.361,48.501,16.39,74.871-6.026,81.239c-22.416,6.369-56.669,10.483-97.345-18.092
					C847.868,1989.352,873.658,1884.333,922.671,1895.983z"/>
				
					<linearGradient id="SVGID_00000006688195531735074500000000669864214961455035_" gradientUnits="userSpaceOnUse" x1="7904.3379" y1="4389.5127" x2="7742.1006" y2="4666.6685" gradientTransform="matrix(-0.991 0.1338 0.1338 0.991 10239.4775 -782.9296)">
					<stop  offset="0" style="stop-color:#09005D"/>
					<stop  offset="1" style="stop-color:#1A0F91"/>
				</linearGradient>
				<path style="fill:url(#SVGID_00000006688195531735074500000000669864214961455035_);" d="M909.118,1986.996
					c0,0-37.268-72.121,29.789-82.086l17.299,8.915c0,0,18.978-45.338-24.186-59.931c-43.163-14.593-101.119,11.411-110.978,68.24
					c-9.859,56.829,4.969,90.664,37.132,112.875c32.163,22.211,39.976-8.951,39.976-8.951s-18.89-22.285-14.302-36.191
					c4.588-13.906,21.36-0.135,21.36-0.135L909.118,1986.996z"/>
				
					<linearGradient id="SVGID_00000169533300464060478300000003746427580230635957_" gradientUnits="userSpaceOnUse" x1="4865.5322" y1="-2894.4417" x2="5014.25" y2="-2757.5535" gradientTransform="matrix(-0.991 0.1338 0.1338 0.991 10239.4775 -782.9296)">
					<stop  offset="0" style="stop-color:#A22B25"/>
					<stop  offset="1" style="stop-color:#C0423C"/>
				</linearGradient>
				<path style="fill:url(#SVGID_00000169533300464060478300000003746427580230635957_);" d="M902.724,1996.452
					c0,0-18.94-37.186-35.081-19.18c-16.14,18.006,19.69,34.054,33.53,38.95L902.724,1996.452z"/>
				
					<linearGradient id="SVGID_00000128451311800886096870000010153578070886400435_" gradientUnits="userSpaceOnUse" x1="8060.6812" y1="4481.0327" x2="7898.4438" y2="4758.189" gradientTransform="matrix(-0.991 0.1338 0.1338 0.991 10239.4775 -782.9296)">
					<stop  offset="0" style="stop-color:#09005D"/>
					<stop  offset="1" style="stop-color:#1A0F91"/>
				</linearGradient>
				<path style="fill:url(#SVGID_00000128451311800886096870000010153578070886400435_);" d="M853.242,1911.055
					c0,0-130.23-40.066-151.667,95.772c-21.436,135.838-36.243,179.383-68.533,155.96c0,0,5.318,50.749,67.317,28.066
					C861.29,2131.976,763.344,1943.457,853.242,1911.055z"/>
			</g>
			<g>
				
					<linearGradient id="SVGID_00000114759222002420262430000001255166847366210446_" gradientUnits="userSpaceOnUse" x1="643.0778" y1="2603.9126" x2="756.563" y2="2603.9126">
					<stop  offset="0" style="stop-color:#E1473D"/>
					<stop  offset="1" style="stop-color:#E9605A"/>
				</linearGradient>
				<path style="fill:url(#SVGID_00000114759222002420262430000001255166847366210446_);" d="M646.997,2650.894
					c-3.375-1.551-4.853-5.544-3.304-8.918c0.534-1.163,13.27-28.792,29.94-55.693c24.28-39.183,43.844-55.642,59.81-50.315
					c6.57,2.209,11.788,7.652,15.501,16.218c14.422,33.277,4.274,112.81,2.474,116.728c-1.551,3.376-5.545,4.854-8.921,3.303
					c-3.042-1.398-4.543-4.78-3.675-7.903c3.617-17.504,10.963-108.621-9.638-115.584c-14.927-4.98-49.651,47.439-73.264,98.859
					c-1.55,3.376-5.545,4.858-8.92,3.306L646.997,2650.894z"/>
				<g>
					
						<linearGradient id="SVGID_00000157274326691567511190000003508239373337034652_" gradientUnits="userSpaceOnUse" x1="-509.4339" y1="13360.9863" x2="-76.7861" y2="12975.6592" gradientTransform="matrix(-0.9086 -0.4176 -0.4176 0.9086 11627.1807 3852.207)">
						<stop  offset="0" style="stop-color:#FF928E"/>
						<stop  offset="1" style="stop-color:#FE7062"/>
					</linearGradient>
					<path style="fill:url(#SVGID_00000157274326691567511190000003508239373337034652_);" d="M605.543,2614.731l190.172,48.165
						c2.749,0.699,3.969,3.211,3.397,5.989l-61.176,294.413c-0.298,1.449-1.311,2.65-2.579,3.412
						c-1.268,0.761-2.857,0.933-4.276,0.522l-253.999-73.878c-1.481-0.429-0.757-0.593-1.402-1.996
						c-0.641-1.403,1.304-2.124,1.948-3.524l123.745-269.277C602.443,2616.23,603.063,2614.101,605.543,2614.731z"/>
					
						<linearGradient id="SVGID_00000044876754039515624920000008700023050941254309_" gradientUnits="userSpaceOnUse" x1="9759.4756" y1="6816.249" x2="9729.0547" y2="6979.6172" gradientTransform="matrix(-0.9086 -0.4176 -0.4176 0.9086 11627.1807 3852.207)">
						<stop  offset="0" style="stop-color:#E1473D"/>
						<stop  offset="1" style="stop-color:#E9605A"/>
					</linearGradient>
					<path style="fill:url(#SVGID_00000044876754039515624920000008700023050941254309_);" d="M738.999,2663.207
						c-1.601,3.483-0.075,7.604,3.408,9.205c3.483,1.601,7.605,0.074,9.205-3.409c1.601-3.484,0.075-7.605-3.409-9.205
						C744.721,2658.197,740.599,2659.723,738.999,2663.207z"/>
					
						<linearGradient id="SVGID_00000048473317164175530110000009913165882936384392_" gradientUnits="userSpaceOnUse" x1="9855.6377" y1="6834.1709" x2="9825.2168" y2="6997.54" gradientTransform="matrix(-0.9086 -0.4176 -0.4176 0.9086 11627.1807 3852.207)">
						<stop  offset="0" style="stop-color:#E1473D"/>
						<stop  offset="1" style="stop-color:#E9605A"/>
					</linearGradient>
					<path style="fill:url(#SVGID_00000048473317164175530110000009913165882936384392_);" d="M643.498,2641.884
						c-1.601,3.483-0.075,7.604,3.409,9.205c3.483,1.601,7.605,0.074,9.206-3.409c1.601-3.483,0.074-7.605-3.409-9.205
						C649.22,2636.875,645.099,2638.401,643.498,2641.884z"/>
				</g>
				<g style="opacity:0.53;">
					<g>
						<g>
							<g>
								<g>
									<path style="fill:#FFFFFF;" d="M737.216,2844.806c-0.564,0-1.134-0.172-1.626-0.53c-1.235-0.899-1.509-2.63-0.609-3.866
										c1.308-1.799,2.566-3.673,3.738-5.569c0.804-1.299,2.507-1.703,3.81-0.899c1.3,0.803,1.703,2.508,0.899,3.81
										c-1.245,2.012-2.58,4.003-3.971,5.915C738.916,2844.411,738.071,2844.806,737.216,2844.806z"/>
								</g>
							</g>
							<g>
								<g>
									<path style="fill:#FFFFFF;" d="M663.702,2883.061c-1.507,0-2.741-1.209-2.766-2.722c-0.024-1.528,1.193-2.788,2.722-2.813
										c4.621-0.076,9.269-0.512,13.814-1.295c1.508-0.278,2.938,0.751,3.198,2.257c0.26,1.507-0.751,2.938-2.257,3.198
										c-4.826,0.833-9.759,1.295-14.663,1.376C663.733,2883.061,663.718,2883.061,663.702,2883.061z M649.431,2882.2
										c-0.126,0-0.254-0.008-0.381-0.026c-4.853-0.667-9.694-1.718-14.391-3.12c-1.465-0.437-2.297-1.979-1.86-3.444
										c0.437-1.465,1.97-2.301,3.443-1.859c4.426,1.32,8.99,2.31,13.562,2.939c1.515,0.208,2.573,1.605,2.365,3.119
										C651.978,2881.196,650.792,2882.2,649.431,2882.2z M691.808,2878.214c-1.155,0-2.233-0.729-2.622-1.884
										c-0.489-1.447,0.288-3.019,1.737-3.507c4.369-1.476,8.663-3.308,12.758-5.446c1.36-0.709,3.029-0.183,3.734,1.172
										c0.708,1.355,0.184,3.027-1.172,3.734c-4.349,2.272-8.909,4.218-13.549,5.784
										C692.4,2878.167,692.101,2878.214,691.808,2878.214z M622.103,2874.036c-0.4,0-0.804-0.086-1.188-0.269
										c-4.424-2.107-8.719-4.577-12.766-7.342c-1.262-0.864-1.585-2.585-0.723-3.847c0.862-1.261,2.584-1.584,3.847-0.723
										c3.81,2.605,7.855,4.931,12.02,6.915c1.381,0.657,1.966,2.308,1.31,3.688
										C624.129,2873.454,623.137,2874.036,622.103,2874.036z M717.096,2865.021c-0.851,0-1.691-0.391-2.232-1.128
										c-0.906-1.231-0.641-2.964,0.591-3.869c0.688-0.506,1.369-1.022,2.045-1.55c2.977-2.323,5.829-4.848,8.477-7.507
										c1.077-1.083,2.83-1.085,3.915-0.007c1.082,1.08,1.085,2.832,0.007,3.916c-2.811,2.82-5.837,5.499-8.992,7.962
										c-0.717,0.56-1.442,1.108-2.173,1.646C718.239,2864.847,717.665,2865.021,717.096,2865.021z M598.572,2857.949
										c-0.681,0-1.362-0.249-1.896-0.751c-3.556-3.345-6.894-7.006-9.92-10.882c-0.94-1.204-0.727-2.943,0.478-3.884
										c1.203-0.94,2.942-0.729,3.884,0.479c2.853,3.653,5.999,7.103,9.349,10.255c1.114,1.047,1.168,2.799,0.12,3.912
										C600.044,2857.657,599.309,2857.949,598.572,2857.949z M581.02,2835.473c-0.97,0-1.911-0.51-2.418-1.416
										c-2.398-4.284-4.475-8.784-6.176-13.375c-0.531-1.434,0.2-3.026,1.632-3.557c1.428-0.532,3.026,0.199,3.557,1.632
										c1.603,4.325,3.56,8.563,5.817,12.597c0.747,1.334,0.27,3.021-1.064,3.767
										C581.941,2835.36,581.477,2835.473,581.02,2835.473z"/>
								</g>
							</g>
							<g>
								<g>
									<path style="fill:#FFFFFF;" d="M571.085,2808.64c-1.291,0-2.446-0.907-2.711-2.22c-0.468-2.323-0.853-4.689-1.143-7.031
										c-0.189-1.518,0.888-2.9,2.404-3.088c1.512-0.201,2.9,0.887,3.088,2.404c0.274,2.207,0.637,4.434,1.078,6.621
										c0.302,1.499-0.669,2.958-2.166,3.261C571.45,2808.623,571.266,2808.64,571.085,2808.64z"/>
								</g>
							</g>
						</g>
						<g>
							<g>
								<g>
									<path style="fill:#FFFFFF;" d="M587.519,2734.925c-0.573,0-1.151-0.177-1.647-0.546c-1.227-0.911-1.484-2.645-0.572-3.872
										c1.406-1.893,2.906-3.762,4.46-5.557c1-1.153,2.746-1.283,3.904-0.28c1.155,1,1.281,2.747,0.28,3.904
										c-1.462,1.689-2.876,3.45-4.2,5.233C589.2,2734.539,588.365,2734.925,587.519,2734.925z"/>
								</g>
							</g>
							<g>
								<g>
									<path style="fill:#FFFFFF;" d="M750.638,2762.305c-1.176,0-2.266-0.756-2.638-1.937c-1.364-4.327-3.074-8.586-5.085-12.66
										c-0.676-1.37-0.114-3.03,1.258-3.707c1.373-0.674,3.031-0.112,3.707,1.258c2.134,4.326,3.952,8.849,5.399,13.444
										c0.459,1.458-0.35,3.012-1.807,3.472C751.195,2762.263,750.914,2762.305,750.638,2762.305z M738.238,2737.144
										c-0.874,0-1.734-0.412-2.272-1.184c-0.919-1.315-1.877-2.612-2.874-3.891c-1.807-2.315-3.744-4.565-5.756-6.686
										c-1.053-1.109-1.007-2.861,0.101-3.912c1.106-1.053,2.86-1.008,3.912,0.102c2.137,2.25,4.191,4.636,6.106,7.091
										c1.058,1.357,2.076,2.733,3.049,4.129c0.876,1.253,0.569,2.979-0.685,3.853
										C739.336,2736.983,738.784,2737.144,738.238,2737.144z M601.848,2719.623c-0.783,0-1.56-0.33-2.107-0.972
										c-0.992-1.162-0.854-2.909,0.31-3.902c1.051-0.897,2.128-1.776,3.231-2.636c2.708-2.112,5.556-4.1,8.463-5.908
										c1.297-0.807,3.003-0.408,3.812,0.888c0.807,1.299,0.409,3.006-0.888,3.812c-2.742,1.706-5.427,3.58-7.982,5.573
										c-1.038,0.81-2.053,1.637-3.045,2.483C603.122,2719.405,602.483,2719.623,601.848,2719.623z M718.912,2716.809
										c-0.593,0-1.189-0.189-1.693-0.58c-3.588-2.78-7.419-5.306-11.386-7.506c-1.337-0.742-1.82-2.426-1.078-3.762
										c0.742-1.338,2.428-1.823,3.762-1.078c4.214,2.336,8.282,5.019,12.091,7.971c1.209,0.937,1.43,2.674,0.493,3.883
										C720.555,2716.44,719.738,2716.809,718.912,2716.809z M625.689,2704.83c-1.076,0-2.097-0.631-2.546-1.681
										c-0.601-1.407,0.052-3.033,1.457-3.633c4.434-1.895,9.051-3.461,13.722-4.657c1.474-0.384,2.99,0.515,3.368,1.994
										c0.38,1.481-0.514,2.99-1.995,3.368c-4.399,1.126-8.747,2.602-12.92,4.384
										C626.42,2704.757,626.051,2704.83,625.689,2704.83z M694.394,2703.205c-0.319,0-0.643-0.057-0.961-0.173
										c-4.253-1.574-8.668-2.838-13.12-3.756c-1.496-0.31-2.46-1.773-2.152-3.271c0.31-1.497,1.77-2.467,3.271-2.152
										c4.723,0.974,9.407,2.315,13.922,3.986c1.433,0.531,2.165,2.123,1.635,3.557
										C696.577,2702.513,695.519,2703.205,694.394,2703.205z M652.857,2697.865c-1.407,0-2.61-1.066-2.751-2.495
										c-0.151-1.521,0.959-2.876,2.481-3.027c4.783-0.474,9.663-0.584,14.481-0.334c1.526,0.08,2.699,1.381,2.619,2.908
										c-0.08,1.526-1.358,2.685-2.908,2.619c-4.541-0.236-9.137-0.134-13.646,0.315
										C653.039,2697.861,652.947,2697.865,652.857,2697.865z"/>
								</g>
							</g>
							<g>
								<g>
									<path style="fill:#FFFFFF;" d="M754.64,2782.951c-1.431,0-2.643-1.103-2.757-2.553c-0.172-2.212-0.431-4.455-0.769-6.665
										c-0.232-1.511,0.806-2.923,2.316-3.154c1.496-0.229,2.923,0.805,3.154,2.316c0.359,2.346,0.635,4.726,0.818,7.073
										c0.119,1.524-1.022,2.856-2.545,2.975C754.785,2782.948,754.711,2782.951,754.64,2782.951z"/>
								</g>
							</g>
						</g>
					</g>
					<g>
						<path style="fill:#FFFFFF;" d="M670.717,2838.367c-19.818-5.31-37.656-28.233-45.035-48.134
							c-6.348-17.124-13.406-21.316-17.047-22.291c-2.012-0.539-3.271-0.205-3.324-0.191c-1.434,0.394-2.981-0.314-3.578-1.68
							c-0.596-1.366-0.137-2.95,1.13-3.737c1.426-0.885,35.454-21.549,80.066-9.596c14.554,3.899,24.847,11.125,30.595,21.474
							c8.663,15.598,3.697,32.444,3.48,33.154c-0.319,1.052-1.188,1.844-2.263,2.065c-1.075,0.221-2.189-0.164-2.896-1.002
							c-4.39-5.203-8.6-9.732-12.62-13.674c4.205,6.821,7.761,14.681,10.614,23.524c0.17,0.526,0.29,0.91,0.371,1.128
							c0.501,1.037,0.362,2.279-0.372,3.186C695.391,2840.423,680.59,2841.012,670.717,2838.367z M613.809,2763.583
							c5.371,2.831,11.909,9.499,17.495,24.567c6.675,18.003,23.302,39.693,40.965,44.425c11.448,3.067,22.158-1.135,31.853-12.488
							c-10.326-31.977-30.212-50.031-56.772-51.03c-1.475-0.052-2.691-1.178-2.863-2.646c-0.173-1.467,0.749-2.84,2.171-3.237
							c0.598-0.167,6.125-1.56,15.711,1.009c11.084,2.97,28.502,11.611,49.951,35.643c0.616-5.636,0.526-14.526-4.066-22.758
							c-4.936-8.847-13.978-15.084-26.876-18.54C651.407,2750.499,626.022,2758.349,613.809,2763.583z"/>
					</g>
				</g>
			</g>
			
				<linearGradient id="SVGID_00000170267656240055741750000006164538420871999671_" gradientUnits="userSpaceOnUse" x1="9829.6816" y1="1816.1824" x2="9789.8252" y2="1406.2295" gradientTransform="matrix(-0.997 0.0777 0.0777 0.997 10429.6826 -157.9383)">
				<stop  offset="0" style="stop-color:#A22B25"/>
				<stop  offset="1" style="stop-color:#C0423C"/>
			</linearGradient>
			<path style="fill:url(#SVGID_00000170267656240055741750000006164538420871999671_);" d="M842.872,2208.775
				c-4.576,6.068-73.928,88.574-93.789,180.642c-19.861,92.068-13.182,153.543-13.182,153.543s20.178,15.048,12.924,25.723
				c-7.254,10.673-5.34,17.936-14.613,20.008c-9.273,2.071-20.771,4.989-19.367-13.315c1.403-18.304-20.448-21.991-16.818-33.056
				c3.612-11.013-21.116-308.147,98.502-388.744c0.565-0.38,1.133-0.757,1.704-1.127
				C848.802,2170.719,850.229,2199.021,842.872,2208.775z"/>
		</g>
	</g>
</g>
</svg>
